<svg width="50" height="50" viewBox="0 0 49 49" fill="none" xmlns="http://www.w3.org/2000/svg">
<path d="M25.8084 0.639281C26.4473 0.712286 27.0884 0.761929 27.7229 0.858296C29.6368 1.14302 31.5258 1.55331 33.2989 2.33957C34.6489 2.93748 36.0062 3.55291 37.2622 4.32019C39.6374 5.77255 41.7364 7.63504 43.4617 9.82113C45.0769 11.8417 46.3635 14.1047 47.2741 16.5267C48.3835 19.4834 48.8648 22.5518 48.7759 25.7027C48.7048 28.6701 48.0773 31.5978 46.9262 34.3333C46.0251 36.4701 44.829 38.4697 43.3728 40.2738C41.9819 42.0055 40.3577 43.5357 38.5466 44.8205C36.6359 46.1782 34.5421 47.2573 32.3281 48.0254C27.2127 49.7951 21.6539 49.8071 16.5309 48.0597C14.9229 47.5121 13.3761 46.7987 11.9155 45.9309C10.3751 45.0067 8.90109 43.9715 7.64587 42.6734C6.68676 41.6813 5.72473 40.6782 4.88597 39.5868C4.11504 38.5822 3.47029 37.4733 2.83648 36.3745C1.94958 34.8334 1.33108 33.1703 0.861372 31.4591C0.453833 30.0219 0.189728 28.5478 0.0729359 27.0584C0.0583487 26.854 0.0240688 26.651 0 26.448V23.5286C0.0189633 23.4096 0.0481374 23.2913 0.0561604 23.1716C0.219537 20.7938 0.758533 18.5029 1.60459 16.2762C3.13452 12.3062 5.67382 8.80491 8.97111 6.11905C12.4207 3.30209 16.5732 1.48133 20.9807 0.853181C21.5912 0.762654 22.2075 0.707175 22.8216 0.63855L25.8084 0.639281ZM24.3759 2.38411C11.8455 2.38411 1.74171 12.526 1.74681 25.1274C1.75192 37.4769 11.8586 47.448 24.0608 47.5925C36.9602 47.7451 46.854 37.4959 47.0254 25.2026C47.2019 12.5194 36.7568 2.37462 24.3759 2.38411Z" fill="currentColor"/>
<path d="M3.49142 24.5594C3.4338 22.059 3.91882 19.6279 4.85605 17.2976C5.50419 15.7003 6.36271 14.197 7.4088 12.8275C8.63996 11.2009 10.0608 9.76929 11.6165 8.46104C12.1752 7.99161 12.7834 8.023 13.1299 8.54645C13.3487 8.88008 13.3312 9.22466 13.0402 9.49551C12.2634 10.2256 11.4524 10.9235 10.6975 11.6769C8.69466 13.675 7.18197 15.9842 6.24329 18.6723C5.40088 21.0814 5.1281 23.5541 5.29512 26.0918C5.41888 28.1545 5.85135 30.187 6.57806 32.1212C7.09607 33.482 7.78004 34.7735 8.61443 35.9664C9.52286 37.2547 10.5964 38.4178 11.8076 39.4261C12.9736 40.396 14.2388 41.2397 15.582 41.9434C16.9495 42.6734 18.3733 43.2472 19.8816 43.5969C23.0244 44.327 26.1672 44.3021 29.2903 43.4911C33.4179 42.3934 37.064 39.9537 39.6552 36.5556C41.1488 34.5764 42.2475 32.3277 42.8914 29.9326C43.3035 28.4177 43.3924 26.8715 43.5208 25.3252C43.5318 25.1916 43.5405 25.058 43.5646 24.9266C43.6681 24.3688 44.0088 24.0805 44.5091 24.1235C44.9883 24.163 45.2961 24.4966 45.2778 25.0558C45.2523 25.8194 45.1925 26.5831 45.113 27.3438C44.8672 29.7753 44.2045 32.1462 43.1539 34.3523C42.4439 35.8299 41.5422 37.2072 40.4721 38.4486C38.9098 40.2781 37.0514 41.7441 34.9895 42.9516C32.1093 44.6394 29 45.6418 25.6625 45.8718C23.354 46.0287 21.0835 45.7601 18.8495 45.1497C17.4382 44.7643 16.0656 44.2686 14.7892 43.5699C13.6879 42.9676 12.6449 42.25 11.6121 41.5323C10.3904 40.6833 9.35546 39.6211 8.39417 38.4909C7.37164 37.2903 6.49672 35.9711 5.78817 34.5618C5.06683 33.1441 4.51503 31.6461 4.14419 30.099C3.71679 28.2863 3.45276 26.4488 3.49142 24.5594Z" fill="currentColor"/>
<path d="M8.72947 25.0843C8.68206 27.2014 9.16709 29.3047 10.0584 31.3138C10.927 33.2708 12.1871 35.0289 13.7609 36.4796C15.3347 37.9302 17.1889 39.0426 19.2089 39.7481C19.4041 39.8153 19.59 39.9068 19.7625 40.0204C20.0907 40.2394 20.1848 40.6132 20.0447 41.0249C19.9288 41.3644 19.6385 41.5937 19.2563 41.5309C18.8266 41.4609 18.4065 41.3409 18.0047 41.1731C16.2404 40.4314 14.5884 39.4882 13.1027 38.277C11.8167 37.2432 10.7038 36.0104 9.80601 34.6253C7.70472 31.3481 6.84116 27.7453 7.00746 23.8848C7.10227 21.6903 7.67044 19.6082 8.59819 17.6137C9.59047 15.4702 11.0163 13.556 12.7854 11.9923C13.9748 10.9363 15.3038 10.0492 16.7349 9.35608C18.9077 8.2975 21.1949 7.75726 23.5996 7.61636C25.555 7.50101 27.4463 7.81274 29.3156 8.32597C31.82 9.00847 34.1243 10.2823 36.0352 12.0405C37.6835 13.5535 39.0456 15.3517 40.0562 17.3487C40.399 18.0174 40.1502 18.4357 39.6557 18.6927C39.2181 18.919 38.7484 18.6861 38.499 18.1729C37.5238 16.1682 36.1555 14.4715 34.4663 13.0253C32.4817 11.3069 30.078 10.145 27.4995 9.65758C24.628 9.10712 21.7894 9.27942 19.0309 10.2825C16.9347 11.0333 15.0247 12.2272 13.4307 13.783C11.8367 15.3388 10.5962 17.22 9.79361 19.2986C9.06399 21.1389 8.70244 23.1046 8.72947 25.0843Z" fill="currentColor"/>
<path d="M31.2345 33.7019H29.1704V26.6204H21.2314V33.6975H19.1812V17.9722H21.219V24.9362H29.1624V17.9525C29.8188 17.9525 30.4461 17.9474 31.0741 17.9605C31.1346 17.9605 31.2199 18.0679 31.2447 18.1409C31.2632 18.2484 31.2666 18.358 31.255 18.4665C31.255 23.3855 31.255 28.3044 31.255 33.223C31.2542 33.377 31.2418 33.5303 31.2345 33.7019Z" fill="currentColor"/>
</svg>
